<svg xmlns="http://www.w3.org/2000/svg" version="1.1" viewBox="0 0 2 1" preserveAspectRatio="none" shape-rendering="geometricPrecision"><title>Happiness spherical facial map</title><desc>Happiness project-authored facial-expression endpoint. Evidence-grounded prototype; not a normed or independently validated stimulus.</desc><g transform="translate(0.5 0.5) scale(0.37 0.31)" stroke-width="0.055" stroke-linecap="round" stroke-linejoin="round"><path data-feature="leftBrow" d="M -0.68 -0.49 C -0.518 -0.53 -0.302 -0.53 -0.14 -0.49" fill="none" stroke="#17231e" /><path data-feature="rightBrow" d="M 0.14 -0.49 C 0.302 -0.53 0.518 -0.53 0.68 -0.49" fill="none" stroke="#17231e" /><path data-feature="leftEye" d="M -0.5998 -0.1916 C -0.6013 -0.2291 -0.5086 -0.2633 -0.3927 -0.2679 C -0.2768 -0.2726 -0.1817 -0.2459 -0.1802 -0.2084 C -0.1787 -0.1709 -0.2714 -0.1367 -0.3873 -0.1321 C -0.5032 -0.1274 -0.5983 -0.1541 -0.5998 -0.1916 Z" fill="#effff7" stroke="#17231e" /><path data-feature="rightEye" d="M 0.1802 -0.2084 C 0.1817 -0.2459 0.2768 -0.2726 0.3927 -0.2679 C 0.5086 -0.2633 0.6013 -0.2291 0.5998 -0.1916 C 0.5983 -0.1541 0.5032 -0.1274 0.3873 -0.1321 C 0.2714 -0.1367 0.1787 -0.1709 0.1802 -0.2084 Z" fill="#effff7" stroke="#17231e" /><path data-feature="leftPupil" d="M -0.436 -0.195 C -0.436 -0.2199 -0.4154 -0.24 -0.39 -0.24 C -0.3646 -0.24 -0.344 -0.2199 -0.344 -0.195 C -0.344 -0.1701 -0.3646 -0.15 -0.39 -0.15 C -0.4154 -0.15 -0.436 -0.1701 -0.436 -0.195 Z" fill="#17231e" stroke="#17231e" /><path data-feature="rightPupil" d="M 0.344 -0.195 C 0.344 -0.2199 0.3646 -0.24 0.39 -0.24 C 0.4154 -0.24 0.436 -0.2199 0.436 -0.195 C 0.436 -0.1701 0.4154 -0.15 0.39 -0.15 C 0.3646 -0.15 0.344 -0.1701 0.344 -0.195 Z" fill="#17231e" stroke="#17231e" /><path data-feature="nose" d="M 0 -0.08 C -0.07 -0.02 -0.125 0.07 -0.055 0.11 C 0.015 0.13 0.135 0.17 0.065 0.19" fill="none" stroke="#17231e" /><path data-feature="mouth" d="M -0.47 0.3 C -0.2068 0.3 -0.2068 0.39 0 0.39 C 0.2068 0.39 0.2068 0.3 0.47 0.3 C 0.2068 0.3 0.2068 0.55 0 0.55 C -0.2068 0.55 -0.2068 0.3 -0.47 0.3 Z" fill="#17231e" stroke="#17231e" /></g></svg>
