<svg xmlns="http://www.w3.org/2000/svg" version="1.1" viewBox="0 0 2 1" preserveAspectRatio="none" shape-rendering="geometricPrecision"><title>Sadness spherical facial map</title><desc>Sadness project-authored facial-expression endpoint. Evidence-grounded prototype; not a normed or independently validated stimulus.</desc><g transform="translate(0.5 0.5) scale(0.37 0.31)" stroke-width="0.055" stroke-linecap="round" stroke-linejoin="round"><path data-feature="leftBrow" d="M -0.68 -0.44 C -0.518 -0.61 -0.302 -0.61 -0.14 -0.59" fill="none" stroke="#17231e" /><path data-feature="rightBrow" d="M 0.14 -0.59 C 0.302 -0.61 0.518 -0.61 0.68 -0.44" fill="none" stroke="#17231e" /><path data-feature="leftEye" d="M -0.5896 -0.198 C -0.5931 -0.2559 -0.5066 -0.3082 -0.3963 -0.3148 C -0.286 -0.3214 -0.1938 -0.2799 -0.1904 -0.222 C -0.1869 -0.1641 -0.2734 -0.1118 -0.3837 -0.1052 C -0.494 -0.0986 -0.5862 -0.1401 -0.5896 -0.198 Z" fill="#effff7" stroke="#17231e" /><path data-feature="rightEye" d="M 0.1904 -0.222 C 0.1938 -0.2799 0.286 -0.3214 0.3963 -0.3148 C 0.5066 -0.3082 0.5931 -0.2559 0.5896 -0.198 C 0.5862 -0.1401 0.494 -0.0986 0.3837 -0.1052 C 0.2734 -0.1118 0.1869 -0.1641 0.1904 -0.222 Z" fill="#effff7" stroke="#17231e" /><path data-feature="leftPupil" d="M -0.442 -0.22 C -0.442 -0.2559 -0.4187 -0.285 -0.39 -0.285 C -0.3613 -0.285 -0.338 -0.2559 -0.338 -0.22 C -0.338 -0.1841 -0.3613 -0.155 -0.39 -0.155 C -0.4187 -0.155 -0.442 -0.1841 -0.442 -0.22 Z" fill="#17231e" stroke="#17231e" /><path data-feature="rightPupil" d="M 0.338 -0.22 C 0.338 -0.2559 0.3613 -0.285 0.39 -0.285 C 0.4187 -0.285 0.442 -0.2559 0.442 -0.22 C 0.442 -0.1841 0.4187 -0.155 0.39 -0.155 C 0.3613 -0.155 0.338 -0.1841 0.338 -0.22 Z" fill="#17231e" stroke="#17231e" /><path data-feature="nose" d="M 0 -0.08 C -0.07 -0.02 -0.125 0.07 -0.055 0.11 C 0.015 0.13 0.135 0.17 0.065 0.19" fill="none" stroke="#17231e" /><path data-feature="mouth" d="M -0.4 0.52 C -0.176 0.52 -0.176 0.36 0 0.36 C 0.176 0.36 0.176 0.52 0.4 0.52 C 0.176 0.52 0.176 0.45 0 0.45 C -0.176 0.45 -0.176 0.52 -0.4 0.52 Z" fill="#17231e" stroke="#17231e" /></g></svg>
